<svg width="400" height="400" viewBox="0 0 400 400" xmlns="http://www.w3.org/2000/svg">
  <!-- Background -->
  <rect width="400" height="400" fill="#e8e8e8"/>
  
  <!-- Marble wall texture with veins -->
  <rect x="0" y="0" width="400" height="280" fill="url(#marbleTexture)"/>
  <defs>
    <linearGradient id="marbleTexture" x1="0%" y1="0%" x2="100%" y2="100%">
      <stop offset="0%" style="stop-color:#34495e;stop-opacity:1" />
      <stop offset="30%" style="stop-color:#2c3e50;stop-opacity:1" />
      <stop offset="70%" style="stop-color:#34495e;stop-opacity:1" />
      <stop offset="100%" style="stop-color:#2c3e50;stop-opacity:1" />
    </linearGradient>
  </defs>
  
  <!-- Marble veins -->
  <path d="M0,50 Q100,30 200,50 T400,50" stroke="#5d6d7e" stroke-width="2" fill="none" opacity="0.4"/>
  <path d="M0,100 Q150,80 300,100 T400,100" stroke="#5d6d7e" stroke-width="1" fill="none" opacity="0.3"/>
  <path d="M0,150 Q80,130 160,150 T400,150" stroke="#5d6d7e" stroke-width="1" fill="none" opacity="0.2"/>
  <path d="M0,200 Q120,180 240,200 T400,200" stroke="#5d6d7e" stroke-width="1" fill="none" opacity="0.2"/>
  
  <!-- Company logo AC -->
  <text x="200" y="75" text-anchor="middle" fill="white" font-size="50" font-weight="bold" font-family="Arial, sans-serif">AC</text>
  <text x="200" y="105" text-anchor="middle" fill="white" font-size="20" font-family="Arial, sans-serif">ANDREOLI</text>
  <text x="200" y="125" text-anchor="middle" fill="white" font-size="18" font-family="Arial, sans-serif">CONSÓRCIO</text>
  
  <!-- Two men celebrating -->
  <!-- First man (left) -->
  <circle cx="150" cy="195" r="40" fill="#d4a574"/>
  <rect x="130" y="235" width="40" height="58" fill="#87ceeb" rx="5"/>
  <!-- Hair -->
  <path d="M115,175 Q150,160 185,175 Q185,190 150,190 Q115,190 115,175" fill="#2c1810"/>
  <!-- Smile -->
  <path d="M140,200 Q150,210 160,200" stroke="#333" stroke-width="2" fill="none"/>
  
  <!-- Second man (right) - with AC shirt -->
  <circle cx="250" cy="195" r="40" fill="#c4915c"/>
  <rect x="230" y="235" width="40" height="58" fill="#333" rx="5"/>
  <text x="250" y="250" text-anchor="middle" fill="white" font-size="10" font-weight="bold" font-family="Arial, sans-serif">AC</text>
  <!-- Hair -->
  <path d="M215,175 Q250,160 285,175 Q285,190 250,190 Q215,190 215,175" fill="#2c1810"/>
  <!-- Smile -->
  <path d="M240,200 Q250,210 260,200" stroke="#333" stroke-width="2" fill="none"/>
  
  <!-- Credit card being exchanged -->
  <rect x="180" y="185" width="60" height="35" fill="url(#creditCardGrad)" rx="5"/>
  <defs>
    <linearGradient id="creditCardGrad" x1="0%" y1="0%" x2="100%" y2="100%">
      <stop offset="0%" style="stop-color:#4169e1;stop-opacity:1" />
      <stop offset="100%" style="stop-color:#1e40af;stop-opacity:1" />
    </linearGradient>
  </defs>
  <text x="210" y="200" text-anchor="middle" fill="white" font-size="9" font-weight="bold" font-family="Arial, sans-serif">CARTA DE</text>
  <text x="210" y="212" text-anchor="middle" fill="white" font-size="9" font-weight="bold" font-family="Arial, sans-serif">CRÉDITO</text>
  
  <!-- AC badge -->
  <circle cx="310" cy="205" r="25" fill="#4169e1"/>
  <text x="310" y="212" text-anchor="middle" fill="white" font-size="16" font-weight="bold" font-family="Arial, sans-serif">AC</text>
  
  <!-- Success elements -->
  <text x="80" y="170" fill="#ffd700" font-size="18">✨</text>
  <text x="320" y="170" fill="#ffd700" font-size="18">🎯</text>
  
  <!-- Text overlay -->
  <rect x="20" y="320" width="360" height="70" fill="rgba(0,0,0,0.9)" rx="35"/>
  <text x="200" y="345" text-anchor="middle" fill="white" font-size="16" font-weight="bold" font-family="Arial, sans-serif">Contemplado na</text>
  <text x="200" y="365" text-anchor="middle" fill="white" font-size="16" font-weight="bold" font-family="Arial, sans-serif">2° parcela</text>
  <text x="200" y="380" text-anchor="middle" fill="#ffd700" font-size="12" font-family="Arial, sans-serif">🚗 Marcos - Sonho realizado!</text>
</svg>